<svg xmlns="http://www.w3.org/2000/svg" width="300" height="400" viewBox="0 0 300 400">
  <rect x="10" y="10" width="280" height="380" rx="5" fill="#FFFFFF" stroke="#CCCCCC" stroke-width="2" />
  <!-- Header section -->
  <rect x="20" y="20" width="260" height="60" fill="#F5F5F5" />
  <circle cx="50" cy="50" r="20" fill="#FF9933" />
  <rect x="80" y="30" width="180" height="10" fill="#333333" />
  <rect x="80" y="50" width="120" height="8" fill="#666666" />
  <!-- Content sections -->
  <rect x="20" y="90" width="260" height="1" fill="#CCCCCC" />
  <!-- Education -->
  <rect x="20" y="100" width="80" height="10" fill="#000080" />
  <rect x="20" y="120" width="260" height="1" fill="#EEEEEE" />
  <rect x="30" y="130" width="240" height="8" fill="#666666" />
  <rect x="30" y="145" width="200" height="8" fill="#666666" />
  <!-- Experience -->
  <rect x="20" y="170" width="80" height="10" fill="#000080" />
  <rect x="20" y="190" width="260" height="1" fill="#EEEEEE" />
  <rect x="30" y="200" width="240" height="8" fill="#666666" />
  <rect x="30" y="215" width="200" height="8" fill="#666666" />
  <rect x="30" y="230" width="220" height="8" fill="#666666" />
  <!-- Skills -->
  <rect x="20" y="260" width="80" height="10" fill="#000080" />
  <rect x="20" y="280" width="260" height="1" fill="#EEEEEE" />
  <!-- Skill bars -->
  <rect x="30" y="290" width="60" height="20" rx="10" fill="#FF9933" />
  <rect x="100" y="290" width="60" height="20" rx="10" fill="#138808" />
  <rect x="170" y="290" width="60" height="20" rx="10" fill="#000080" />
  <rect x="30" y="320" width="70" height="20" rx="10" fill="#FF9933" />
  <rect x="110" y="320" width="70" height="20" rx="10" fill="#138808" />
  <!-- Footer with tricolor -->
  <rect x="10" y="370" width="280" height="20" fill="#FFFFFF" />
  <rect x="20" y="380" width="80" height="3" fill="#FF9933" />
  <rect x="110" y="380" width="80" height="3" fill="#FFFFFF" stroke="#CCCCCC" stroke-width="0.5" />
  <rect x="200" y="380" width="80" height="3" fill="#138808" />
</svg>